# This file uses centimeters as units for non-parametric coordinates.

v 0.520871 0.169241 -0.147732
v 0.443079 0.321916 -0.147732
v 0.321916 0.443079 -0.147732
v 0.169241 0.520871 -0.147732
v 0.000000 0.547676 -0.147732
v -0.169241 0.520871 -0.147732
v -0.321916 0.443079 -0.147732
v -0.443079 0.321916 -0.147732
v -0.520870 0.169241 -0.147732
v -0.547676 -0.000000 -0.147732
v -0.520870 -0.169241 -0.147732
v -0.443079 -0.321916 -0.147732
v -0.321916 -0.443079 -0.147732
v -0.169241 -0.520870 -0.147732
v -0.000000 -0.547675 -0.147732
v 0.169241 -0.520870 -0.147732
v 0.321916 -0.443079 -0.147732
v 0.443079 -0.321916 -0.147732
v 0.520870 -0.169241 -0.147732
v 0.547675 -0.000000 -0.147732
v 0.520871 0.169241 0.026026
v 0.443079 0.321916 0.026026
v 0.321916 0.443079 0.026026
v 0.169241 0.520871 0.026026
v 0.000000 0.547676 0.026026
v -0.169241 0.520871 0.026026
v -0.321916 0.443079 0.026026
v -0.443079 0.321916 0.026026
v -0.520870 0.169241 0.026026
v -0.547676 0.000000 0.026026
v -0.520870 -0.169241 0.026026
v -0.443079 -0.321916 0.026026
v -0.321916 -0.443079 0.026026
v -0.169241 -0.520870 0.026026
v -0.000000 -0.547675 0.026026
v 0.169241 -0.520870 0.026026
v 0.321916 -0.443079 0.026026
v 0.443079 -0.321916 0.026026
v 0.520870 -0.169241 0.026026
v 0.547675 0.000000 0.026026
v 0.000000 -0.000000 -0.147732
v 0.000000 0.000000 0.026026
vn 0.966026 0.258445 0.000000
vn 0.838881 0.544315 0.000000
vn 0.933442 0.358728 0.000000
vn 0.776903 0.629620 0.000000
vn 0.629620 0.776903 0.000000
vn 0.544315 0.838881 0.000000
vn 0.358728 0.933442 0.000000
vn 0.258446 0.966026 0.000000
vn 0.052721 0.998609 0.000000
vn -0.052721 0.998609 0.000000
vn -0.258446 0.966026 0.000000
vn -0.358728 0.933442 0.000000
vn -0.544316 0.838881 0.000000
vn -0.629620 0.776903 0.000000
vn -0.776903 0.629620 0.000000
vn -0.838881 0.544315 0.000000
vn -0.933442 0.358728 0.000000
vn -0.966026 0.258446 0.000000
vn -0.998609 0.052721 0.000000
vn -0.998609 -0.052721 0.000000
vn -0.966026 -0.258446 0.000000
vn -0.933442 -0.358728 0.000000
vn -0.838881 -0.544315 0.000000
vn -0.776903 -0.629620 0.000000
vn -0.629620 -0.776903 0.000000
vn -0.544315 -0.838881 0.000000
vn -0.358728 -0.933442 0.000000
vn -0.258446 -0.966026 0.000000
vn -0.052721 -0.998609 0.000000
vn 0.052721 -0.998609 0.000000
vn 0.258446 -0.966026 0.000000
vn 0.358728 -0.933442 0.000000
vn 0.544315 -0.838881 0.000000
vn 0.629620 -0.776903 0.000000
vn 0.776903 -0.629620 0.000000
vn 0.838881 -0.544315 0.000000
vn 0.933442 -0.358728 0.000000
vn 0.966026 -0.258446 0.000000
vn 0.998609 -0.052722 0.000000
vn 0.998609 0.052720 0.000000
vn -0.000000 0.000000 -1.000000
vn 0.000000 0.000000 -1.000000
vn 0.000000 0.000000 -1.000000
vn 0.000000 0.000000 -1.000000
vn 0.000000 0.000000 -1.000000
vn 0.000000 0.000000 -1.000000
vn 0.000000 0.000000 -1.000000
vn 0.000000 0.000000 -1.000000
vn -0.000000 0.000000 -1.000000
vn 0.000000 0.000000 -1.000000
vn 0.000000 0.000000 -1.000000
vn -0.000000 0.000000 -1.000000
vn -0.000000 0.000000 -1.000000
vn 0.000000 0.000000 -1.000000
vn 0.000000 0.000000 -1.000000
vn 0.000000 0.000000 -1.000000
vn 0.000000 0.000000 -1.000000
vn 0.000000 0.000000 -1.000000
vn 0.000000 0.000000 -1.000000
vn 0.000000 0.000000 -1.000000
vn 0.000000 0.000000 -1.000000
vn 0.000000 0.000000 1.000000
vn -0.000000 0.000000 1.000000
vn 0.000000 0.000000 1.000000
vn 0.000000 0.000000 1.000000
vn 0.000000 0.000000 1.000000
vn 0.000000 0.000000 1.000000
vn 0.000000 0.000000 1.000000
vn 0.000000 0.000000 1.000000
vn 0.000000 0.000000 1.000000
vn 0.000000 0.000000 1.000000
vn 0.000000 0.000000 1.000000
vn -0.000000 0.000000 1.000000
vn -0.000000 0.000000 1.000000
vn -0.000000 0.000000 1.000000
vn 0.000000 0.000000 1.000000
vn 0.000000 0.000000 1.000000
vn 0.000000 0.000000 1.000000
vn 0.000000 0.000000 1.000000
vn 0.000000 0.000000 1.000000
vn 0.000000 0.000000 1.000000
vn 0.000000 0.000000 1.000000
f  1//1   2//2  21//3
f 21//3   2//2  22//4
f  2//2   3//5  22//4
f 22//4   3//5  23//6
f  3//5   4//7  23//6
f 23//6   4//7  24//8
f  4//7   5//9  24//8
f 24//8   5//9  25//10
f  5//9   6//11 25//10
f 25//10  6//11 26//12
f  6//11  7//13 26//12
f 26//12  7//13 27//14
f  7//13  8//15 27//14
f 27//14  8//15 28//16
f  8//15  9//17 28//16
f 28//16  9//17 29//18
f  9//17 10//19 29//18
f 29//18 10//19 30//20
f 10//19 11//21 30//20
f 30//20 11//21 31//22
f 11//21 12//23 31//22
f 31//22 12//23 32//24
f 12//23 13//25 32//24
f 32//24 13//25 33//26
f 13//25 14//27 33//26
f 33//26 14//27 34//28
f 14//27 15//29 34//28
f 34//28 15//29 35//30
f 15//29 16//31 35//30
f 35//30 16//31 36//32
f 16//31 17//33 36//32
f 36//32 17//33 37//34
f 17//33 18//35 37//34
f 37//34 18//35 38//36
f 18//35 19//37 38//36
f 38//36 19//37 39//38
f 19//37 20//39 39//38
f 39//38 20//39 40//40
f 20//39  1//1  40//40
f 40//40  1//1  21//3
f  2//41  1//42 41//43
f  3//44  2//41 41//43
f  4//45  3//44 41//43
f  5//46  4//45 41//43
f  6//47  5//46 41//43
f  7//48  6//47 41//43
f  8//49  7//48 41//43
f  9//50  8//49 41//43
f 10//51  9//50 41//43
f 11//52 10//51 41//43
f 12//53 11//52 41//43
f 13//54 12//53 41//43
f 14//55 13//54 41//43
f 15//56 14//55 41//43
f 16//57 15//56 41//43
f 17//58 16//57 41//43
f 18//59 17//58 41//43
f 19//60 18//59 41//43
f 20//61 19//60 41//43
f  1//42 20//61 41//43
f 21//62 22//63 42//64
f 22//63 23//65 42//64
f 23//65 24//66 42//64
f 24//66 25//67 42//64
f 25//67 26//68 42//64
f 26//68 27//69 42//64
f 27//69 28//70 42//64
f 28//70 29//71 42//64
f 29//71 30//72 42//64
f 30//72 31//73 42//64
f 31//73 32//74 42//64
f 32//74 33//75 42//64
f 33//75 34//76 42//64
f 34//76 35//77 42//64
f 35//77 36//78 42//64
f 36//78 37//79 42//64
f 37//79 38//80 42//64
f 38//80 39//81 42//64
f 39//81 40//82 42//64
f 40//82 21//62 42//64
